<svg width="49" height="52" viewBox="0 0 49 52" fill="none" xmlns="http://www.w3.org/2000/svg">
<mask id="mask0_227_65" style="mask-type:luminance" maskUnits="userSpaceOnUse" x="0" y="0" width="49" height="52">
<path d="M0 0L49 0L49 52L0 52L0 0Z" fill="white"/>
</mask>
<g mask="url(#mask0_227_65)">
<path d="M48.9236 19.4374C48.8983 8.97262 38.4469 0.407965 25.4217 0.0167856L25.1139 0.00872204L24.8025 0.00872204L24.487 0.00146484L24.1715 0.00146484L23.8601 0.00670616L23.5523 0.0147697C10.5271 0.408271 0.0763265 8.97257 0.0763265 19.4375C0.0763265 19.6633 0.0813897 19.8891 0.0915174 20.1156C0.0813901 20.3575 0.0763265 20.5994 0.0763265 20.8405C0.0737945 22.1529 0.219127 23.4628 0.510288 24.7542C0.522947 24.8304 0.574091 25.059 0.67637 25.4517C1.04703 26.8616 1.59441 28.2385 2.31035 29.5617C4.94041 34.8477 10.7241 42.9712 23.4141 51.67V51.6696C24.0338 52.1062 24.9651 52.1062 25.5848 51.6696C38.2627 42.9711 44.0597 34.8489 46.6885 29.5613V29.5617C47.4061 28.2393 47.9539 26.862 48.3225 25.4517C48.4248 25.0594 48.476 24.8304 48.4886 24.7542C48.7737 23.462 48.919 22.1525 48.9226 20.8405C48.9226 20.5966 48.916 20.3535 48.9058 20.1116C48.918 19.8874 48.9236 19.6629 48.9226 19.4375L48.9236 19.4374ZM36.5075 20.3373C36.2154 23.5946 33.8623 26.51 30.263 28.0751C26.6632 29.6399 22.311 29.6399 18.7113 28.0751C15.1115 26.51 12.759 23.5946 12.4668 20.3373C12.4445 20.1103 12.4339 19.8817 12.4349 19.6511C12.4349 16.2225 14.7318 13.0547 18.4611 11.3404C22.1901 9.6261 26.7843 9.6261 30.5132 11.3404C34.2421 13.0546 36.5394 16.2225 36.5394 19.6511C36.5394 19.8822 36.5288 20.1107 36.5075 20.3373Z" fill="black"/>
</g>
</svg>
