<svg width="60" height="60" viewBox="0 0 60 60" fill="none" xmlns="http://www.w3.org/2000/svg">
<path d="M58.8756 53.6244L47.6252 42.3741C46.4999 41.2489 44.75 40.9993 43.3752 41.6239L39.2504 37.4996C42.7506 33.4998 45.0006 28.2498 45.0006 22.5001C45.0006 16.2498 42.5006 10.6252 38.3758 6.62479C34.3755 2.49996 28.7503 0 22.5003 0C16.25 0 10.6248 2.49996 6.62485 6.62479C2.49998 10.6246 0 16.2497 0 22.5001C0 34.8751 10.1251 45 22.5001 45C28.2503 45 33.5004 42.75 37.4997 39.2498L41.6246 43.3746C40.9994 44.7494 41.2495 46.4997 42.3747 47.6245L53.6251 58.8748C54.3753 59.6249 55.3749 60 56.2502 60C57.1253 60 58.125 59.6249 58.8752 58.8748C60.375 57.5 60.375 55.125 58.8747 53.6248L58.8756 53.6244ZM22.5011 39.9994C12.876 39.9994 5.00046 32.1244 5.00046 22.499C5.00046 12.8741 12.8755 4.99854 22.5011 4.99854C32.1261 4.99854 40.0017 12.8736 40.0017 22.499C40.0017 32.1239 32.1266 39.9994 22.5011 39.9994Z" fill="black"/>
<path d="M22.4998 7.49951C14.2495 7.49951 7.50012 14.2493 7.50012 22.499C7.50012 30.7492 14.25 37.4985 22.4998 37.4985C30.75 37.4985 37.4994 30.7487 37.4994 22.499C37.4994 14.2489 30.749 7.49951 22.4998 7.49951ZM25.4994 34.6241C25.6245 34.4991 25.8745 34.4991 25.9995 34.4991C27.3743 33.999 28.6246 33.2489 29.4998 32.1241C30.3749 30.9989 30.8746 29.4991 30.5 28.1243C29.9999 28.1243 29.4998 28.2493 29.1252 28.1243C28.6251 27.9993 28.25 27.7492 28 27.3742C27.4999 26.624 27.8749 25.7493 27.8749 24.8742C27.8749 24.1241 27.4999 23.3744 26.8747 22.9994C26.2496 22.6243 25.3749 22.4993 24.7498 22.8743C24.1246 23.2494 23.8746 24.1246 24.1246 24.7492C24.3747 25.2493 24.8748 25.7494 24.7498 26.3741C24.6247 26.9992 23.8746 27.1242 23.2499 27.1242C22.6248 27.1242 21.9997 27.1242 21.625 27.6243C21.25 28.1244 21.5 28.8745 20.9999 29.2492C20.6248 29.6242 19.8747 29.4992 19.375 29.6242C18.8749 29.7493 18.3748 30.2494 18.2498 30.7494C17.9998 31.2495 17.9998 31.8747 17.9998 32.3743C17.9998 33.1245 18.1248 33.7491 18.3748 34.3742C13.4993 32.6244 9.99954 27.9989 9.99954 22.4993C9.99954 21.9992 9.99954 21.4991 10.1246 20.9995C10.2496 21.2495 10.3746 21.6246 10.6247 21.7496C10.8747 21.9997 11.2498 22.1247 11.4998 21.9997C11.3748 22.4998 11.2498 22.8748 10.9997 23.3744C10.9993 23.9991 10.7492 24.6242 11.2493 24.9993C11.4994 25.2494 11.9995 25.2494 12.3745 25.3744C12.9997 25.6244 13.2497 26.6246 12.7496 27.1242C13.1247 26.9992 13.4998 27.2492 13.7498 27.6243C13.9999 27.8743 14.1249 28.2494 14.3749 28.6245C14.625 28.9995 14.875 29.2496 15.3751 29.2496C15.7502 29.2496 16.1253 28.8745 16.2503 28.4994C16.3753 28.1244 16.6254 27.7493 17.0005 27.6243C17.3755 27.3742 18.0007 27.4992 18.2507 27.1242C18.5008 26.7491 18.2507 25.999 18.5008 25.6243C18.7508 25.2493 19.2509 25.2493 19.3759 24.9992C19.626 24.6242 19.3759 24.2491 19.0009 23.999C18.6258 23.874 18.2507 23.874 17.8756 23.874C17.5006 23.874 17.1255 23.999 16.7504 23.874C16.1253 23.624 15.8752 22.9988 15.3756 22.3742C14.8755 21.7491 14.0008 21.374 13.1256 21.374C12.5005 21.374 11.6258 21.624 11.2508 21.1239C11.0007 20.8739 11.0007 20.4988 10.8757 20.2488C10.7507 19.7487 10.7507 19.3736 10.6256 18.874C10.7507 18.6239 10.7507 18.3739 10.8757 18.1238H11.1257C11.2508 18.6239 11.8759 18.999 12.376 18.874C12.376 18.6239 12.251 18.3739 12.251 18.1238C12.626 18.1238 13.0011 18.2489 13.3762 18.1238C13.7512 17.9988 14.0013 17.4987 13.7512 17.2487C13.6262 17.1237 13.3762 16.9986 13.2512 16.8736C13.1261 16.7486 13.0011 16.4985 13.1261 16.3735C13.2512 16.2485 13.5012 16.2485 13.6262 16.3735C13.7512 16.4985 13.8763 16.6236 14.0013 16.7486C14.3764 16.9986 14.8765 17.1237 15.2515 16.9986C15.6266 16.8736 16.0017 16.6236 16.3768 16.3735C16.6268 16.1235 17.0019 15.8734 17.0019 15.4983C17.0019 15.2483 16.7518 15.1233 16.6268 14.9982C16.5018 14.8732 16.3768 14.6232 16.3768 14.3731C16.3768 14.1231 16.6268 13.998 16.8769 14.1231C16.8769 13.998 16.8769 13.873 17.0019 13.623C16.8769 13.498 16.6268 13.623 16.3768 13.748C16.2517 13.873 16.0017 13.998 15.7516 13.998C15.5016 13.998 15.3766 13.748 15.3766 13.623C15.6266 13.3729 16.0017 13.2479 16.3768 13.1229C16.7518 12.9979 17.1269 12.9979 17.377 13.2479C17.752 13.498 17.752 13.9981 18.1271 14.2481C18.5022 14.4982 19.1273 14.2481 19.2523 13.748C19.2523 13.3729 19.3774 13.1229 19.1273 12.7478C18.8773 12.3728 18.5022 12.3728 18.1271 12.2477C17.377 12.1227 16.7523 12.4978 16.1272 12.8729C15.6271 13.1229 15.127 13.3729 14.6274 13.1229C16.3772 11.6231 18.5021 10.6229 20.8777 10.2478C20.7527 10.3728 20.7527 10.3728 20.6276 10.4978C20.3776 10.9979 20.3776 11.7481 20.5026 12.2476C20.7527 13.4979 20.8777 14.7476 20.6276 15.9978C20.0025 18.6228 18.1277 17.4977 17.0024 17.8727C15.0024 18.6228 15.7521 21.9975 18.8772 21.8725C21.1272 21.7474 21.8774 20.1227 23.2522 19.7475C23.8773 19.6225 24.5024 19.7475 25.127 19.6225C25.8772 19.3724 26.3773 18.6223 26.6269 17.7476C26.7519 16.8725 26.7519 16.1228 26.7519 15.2477C26.7519 14.3725 26.8769 13.4979 27.127 12.6227C27.252 12.3726 27.502 11.7475 27.7521 11.1229C28.7523 11.623 29.627 12.1231 30.5022 12.8727C30.3772 12.8727 30.2521 12.8727 30.2521 12.9977C30.0021 13.1227 29.752 13.3727 29.752 13.6228C29.752 13.9979 29.8771 14.2479 30.1271 14.373C30.3772 14.498 30.6272 14.498 30.8773 14.498C31.1273 14.498 31.3774 14.748 31.3774 14.9981C31.3774 15.2481 31.0023 15.3731 31.0023 15.4982C30.8773 15.7482 31.1273 15.9982 31.3774 16.1233C31.7524 16.2483 32.1275 16.2483 32.3776 16.3733C32.7526 16.3733 33.1277 16.4984 33.3778 16.7484C33.6278 16.9984 33.7528 17.4985 33.5028 17.7486C33.3778 17.8736 33.2527 17.7486 33.1277 17.6236C33.0027 17.4985 33.0027 17.2485 32.8777 17.2485C32.6276 17.2485 32.5026 17.6236 32.2525 17.6236C32.1275 17.6236 32.1275 17.4985 32.0025 17.3735V16.9985C32.0025 16.7484 31.6274 16.4984 31.3774 16.6234C31.1273 16.6234 30.8773 16.9985 31.0023 17.2485C31.1273 17.6236 31.6274 17.8736 31.7524 18.2487C31.8775 18.6238 31.3774 18.9989 31.1273 19.3739C30.8773 19.749 30.8773 20.1241 30.8773 20.4991C30.8773 20.8742 31.0023 21.2493 31.1273 21.6244C31.2523 21.8744 31.2523 22.1244 31.3774 22.3745C31.5024 22.6246 31.7524 22.7496 32.0025 22.7496C32.2526 22.7496 32.5026 22.6245 32.7526 22.4995C33.0027 22.3745 33.1277 22.2495 33.3778 22.1245C33.6278 21.9994 33.8779 22.1245 34.1279 22.2495C34.253 22.4995 34.1279 22.8746 34.1279 23.2497C34.0029 23.9998 34.378 24.3749 34.8781 24.6245C33.8745 29.624 30.2497 33.4987 25.4992 34.6239L25.4994 34.6241Z" fill="black"/>
</svg>
