<svg width="60" height="61" viewBox="0 0 60 61" fill="none" xmlns="http://www.w3.org/2000/svg">
<path d="M40.1513 5.24035C40.0588 5.5173 38.7674 10.4062 35.7234 13.3583H24.2843C21.2402 10.4062 19.9489 5.51726 19.8564 5.24035C19.8001 4.96568 19.872 4.68051 20.0514 4.46489C20.2309 4.24975 20.4987 4.12752 20.7788 4.13348C24.7458 4.22594 26.8675 3.48757 30.0037 6.99309H30.0042C31.1055 8.22953 32.0083 9.63027 32.6793 11.1446L34.4321 10.4067V10.4062C33.6278 8.71155 32.6042 7.12951 31.3876 5.7017C32.5581 4.73125 34.0192 4.1792 35.539 4.13338H39.229C39.5092 4.12743 39.777 4.24965 39.9564 4.4648C40.1359 4.6804 40.2077 4.96559 40.1514 5.24025L40.1513 5.24035Z" fill="black"/>
<path d="M36.277 17.0481H23.7309C23.4494 16.4654 23.4494 15.786 23.7309 15.2034H36.277C36.5585 15.7861 36.5585 16.4655 36.277 17.0481Z" fill="black"/>
<path d="M49.2837 45.2763C48.7728 45.0886 48.3316 44.7499 48.0184 44.3049C47.7053 43.86 47.535 43.3299 47.5309 42.7856V30.8852C47.5309 27.7041 46.2675 24.6541 44.0185 22.4052C41.7695 20.1562 38.7189 18.8927 35.5384 18.8927H24.4683C21.2877 18.8927 18.2372 20.1561 15.9883 22.4052C13.7393 24.6541 12.4758 27.7043 12.4758 30.8852V42.7856C12.4717 43.3299 12.3018 43.86 11.9883 44.3049C11.6752 44.7499 11.2339 45.0886 10.723 45.2763C9.56165 45.8041 8.58293 46.6643 7.90957 47.7478C7.23665 48.8313 6.89928 50.0901 6.94094 51.365C7.0357 53.0779 7.79009 54.6875 9.04528 55.857C10.3005 57.0262 11.9598 57.6643 13.6751 57.6382H46.3318C48.0475 57.6643 49.7064 57.0261 50.9616 55.857C52.2168 54.6875 52.9711 53.0779 53.0664 51.365C53.1076 50.0901 52.7707 48.8313 52.0973 47.7478C51.4244 46.6643 50.4452 45.8041 49.2839 45.2763H49.2837ZM25.4829 40.4794L25.114 39.3725L21.6084 45.3687H25.0215V47.2135H19.9481C19.6126 47.2249 19.2976 47.0537 19.1251 46.7663C18.9525 46.4788 18.9497 46.1204 19.1177 45.8297L23.4537 38.542L22.4388 38.819L21.9774 37.0662L25.114 36.1438V36.1433C25.5965 36.0257 26.0863 36.3109 26.2209 36.7892L27.2358 39.8334L25.4829 40.4794ZM26.6822 33.0992L29.1729 28.6713C29.3776 28.4108 29.6966 28.2666 30.0271 28.2849C30.3581 28.3033 30.6588 28.4818 30.8332 28.7638L34.9847 36.1439L35.2617 35.037L37.0145 35.4984L36.2765 38.7271L36.2761 38.7266C36.1511 39.1262 35.7721 39.3917 35.3537 39.3725H35.1692L31.9406 38.7266L32.3095 36.8818L33.4164 37.1588L30.0033 31.0701L28.2505 34.0222L26.6822 33.0992ZM40.058 47.2133H31.5711L32.309 47.9512L31.0176 49.2426L28.7113 46.9364L28.7109 46.9368C28.5346 46.7931 28.4252 46.5834 28.4078 46.3568C28.3904 46.1303 28.4664 45.9064 28.6189 45.7375L30.8331 43.2468L32.217 44.4461L31.3866 45.3685H38.4897L36.7369 42.4164L38.3052 41.494L40.8884 45.8299L40.8879 45.8295C41.0559 46.1202 41.0532 46.4786 40.8806 46.7661C40.708 47.0535 40.3931 47.2247 40.058 47.2133Z" fill="black"/>
</svg>
